<svg width="48" height="48" viewBox="0 0 48 48" fill="none" xmlns="http://www.w3.org/2000/svg">
<path d="M0 16C0 7.16344 7.16344 0 16 0H32C40.8366 0 48 7.16344 48 16V32C48 40.8366 40.8366 48 32 48H16C7.16344 48 0 40.8366 0 32V16Z" fill="#FFF7ED"/>
<path d="M22 28C22.5 28.3 23.2 28.5 24 28.5C24.8 28.5 25.5 28.3 26 28" stroke="#FF6900" stroke-width="2" stroke-linecap="round" stroke-linejoin="round"/>
<path d="M27 24H27.01" stroke="#FF6900" stroke-width="2" stroke-linecap="round" stroke-linejoin="round"/>
<path d="M31.38 18.813C32.0811 19.8324 32.5645 20.9854 32.8 22.2C33.1381 22.3638 33.4233 22.6195 33.6229 22.9378C33.8224 23.2562 33.9282 23.6243 33.9282 24C33.9282 24.3757 33.8224 24.7438 33.6229 25.0622C33.4233 25.3805 33.1381 25.6362 32.8 25.8C32.3683 27.8135 31.2592 29.618 29.6577 30.9125C28.0562 32.207 26.0592 32.9132 24 32.9132C21.9408 32.9132 19.9438 32.207 18.3423 30.9125C16.7408 29.618 15.6317 27.8135 15.2 25.8C14.8619 25.6362 14.5767 25.3805 14.3771 25.0622C14.1776 24.7438 14.0718 24.3757 14.0718 24C14.0718 23.6243 14.1776 23.2562 14.3771 22.9378C14.5767 22.6195 14.8619 22.3638 15.2 22.2C15.6143 20.1705 16.7159 18.346 18.319 17.0344C19.9222 15.7227 21.9287 15.0042 24 15C26 15 27.5 16.1 27.5 17.5C27.5 18.9 26.6 20 25.5 20C24.7 20 24 19.6 24 19" stroke="#FF6900" stroke-width="2" stroke-linecap="round" stroke-linejoin="round"/>
<path d="M21 24H21.01" stroke="#FF6900" stroke-width="2" stroke-linecap="round" stroke-linejoin="round"/>
</svg>
